<?xml version="1.0" encoding="utf-8"?>
<!-- Generator: Adobe Illustrator 16.0.2, SVG Export Plug-In . SVG Version: 6.00 Build 0)  -->
<!DOCTYPE svg PUBLIC "-//W3C//DTD SVG 1.1//EN" "http://www.w3.org/Graphics/SVG/1.1/DTD/svg11.dtd">
<svg version="1.1" id="Layer_1" xmlns="http://www.w3.org/2000/svg" xmlns:xlink="http://www.w3.org/1999/xlink" x="0px" y="0px"
	 width="410.685px" height="68.433px" viewBox="0 0 410.685 68.433" enable-background="new 0 0 410.685 68.433"
	 xml:space="preserve">
<rect y="81.114" fill="#08184E" width="410.685" height="68.434"/>
<g>
	<g>
		<g>
			<g>
				<g id="XMLID_7_">
					<path id="XMLID_8_" fill="#FF0000" d="M187.999,51.546c-0.66-0.666-1.527-0.997-2.596-0.997h-9.593l-0.004,10.784h3.003
						l0.006-8.385h6.129c0.346,0,0.822,0.112,1.037,0.333c0.211,0.213,0.316,0.563,0.32,0.883c0,0.308-0.109,0.619-0.33,0.839
						c-0.229,0.233-0.716,0.341-1.054,0.341h-5.813l5.998,5.989h3.896l-4.323-3.967h0.75c1.051,0,1.908-0.341,2.57-1.016
						c0.67-0.693,1.002-1.492,1.002-2.416C188.998,53.014,188.666,52.22,187.999,51.546z"/>
				</g>
				<path fill="#FF0000" d="M97.819,58.943c-0.508,0-0.93-0.142-1.276-0.442c-0.329-0.283-0.499-0.67-0.495-1.148l-0.004-2.78
					c0.02-0.5,0.193-0.891,0.506-1.181c0.331-0.301,0.757-0.447,1.281-0.447h7.206v-2.388h-8.007c-1.211,0-2.178,0.359-2.904,1.065
					c-0.717,0.706-1.077,1.546-1.083,2.521v3.603c-0.004,0.951,0.348,1.78,1.06,2.507c0.733,0.724,1.695,1.08,2.883,1.08h8.051
					v-2.39H97.819z"/>
				<polygon fill="#FF0000" points="91.845,50.549 78.649,50.549 78.649,52.944 83.747,52.944 83.747,61.343 86.744,61.343 
					86.744,52.944 91.845,52.944 				"/>
				<polygon fill="#FF0000" points="157.813,50.549 144.618,50.549 144.618,52.944 149.716,52.944 149.716,61.343 152.713,61.343 
					152.713,52.944 157.813,52.944 				"/>
				<polygon fill="#FF0000" points="124.229,50.557 123.63,50.557 118.831,58.344 114.033,50.557 113.435,50.557 110.434,50.557 
					110.434,61.343 110.692,61.343 112.268,61.343 113.435,61.343 113.435,55.349 113.435,55.344 117.332,61.333 118.831,61.333 
					120.331,61.333 124.229,55.344 124.229,55.349 124.229,61.343 125.397,61.343 126.974,61.343 127.228,61.343 127.228,50.557 
									"/>
				<path fill="#FF0000" d="M172.328,51.622c-0.728-0.707-1.698-1.065-2.908-1.065h-1.635h-3.154h-1.634
					c-1.214,0-2.177,0.359-2.906,1.065c-0.717,0.706-1.075,1.546-1.079,2.521v3.603c-0.004,0.951,0.347,1.78,1.061,2.507
					c0.73,0.724,1.691,1.08,2.882,1.08h1.677h3.154h1.676c1.192,0,2.154-0.356,2.882-1.08c0.721-0.727,1.063-1.556,1.061-2.507
					v-3.603C173.404,53.168,173.041,52.328,172.328,51.622z M170.405,57.353c0,0.478-0.165,0.865-0.498,1.148
					c-0.344,0.3-0.771,0.442-1.276,0.442h-0.846h-3.154h-0.845c-0.507,0-0.93-0.142-1.276-0.442c-0.33-0.283-0.495-0.67-0.493-1.148
					l-0.006-2.78c0.021-0.5,0.196-0.891,0.507-1.181c0.33-0.301,0.757-0.447,1.282-0.447h0.831h3.154h0.833
					c0.526,0,0.952,0.146,1.283,0.447c0.314,0.291,0.485,0.682,0.507,1.181L170.405,57.353z"/>
				<path fill="#FF0000" d="M142.34,51.622c-0.727-0.707-1.693-1.065-2.903-1.065h-1.634h-3.156h-1.63
					c-1.216,0-2.184,0.359-2.91,1.065c-0.714,0.706-1.075,1.546-1.081,2.521v3.603c-0.002,0.951,0.348,1.78,1.065,2.507
					c0.729,0.724,1.688,1.08,2.882,1.08h1.675h3.156h1.673c1.193,0,2.151-0.356,2.884-1.08c0.717-0.727,1.066-1.556,1.061-2.507
					v-3.603C143.419,53.168,143.056,52.328,142.34,51.622z M140.416,57.353c0,0.478-0.166,0.865-0.493,1.148
					c-0.348,0.3-0.771,0.442-1.278,0.442h-0.841h-3.156h-0.845c-0.507,0-0.93-0.142-1.276-0.442
					c-0.332-0.283-0.497-0.67-0.497-1.148l-0.002-2.78c0.02-0.5,0.191-0.891,0.507-1.181c0.331-0.301,0.757-0.447,1.279-0.447h0.835
					h3.156h0.829c0.527,0,0.95,0.146,1.284,0.447c0.314,0.291,0.485,0.682,0.507,1.181L140.416,57.353z"/>
			</g>
			<g>
				<path fill="#FF0000" d="M43.366,61.343V50.549h7.009c1.264,0.021,2.057,0.045,2.375,0.068c1.034,0.09,1.741,0.5,2.133,1.235
					c0.197,0.368,0.298,0.869,0.298,1.502c0,0.697-0.096,1.221-0.29,1.574c-0.201,0.354-0.465,0.591-0.797,0.71
					c0.459,0.077,0.822,0.32,1.095,0.725c0.27,0.405,0.402,1.03,0.402,1.878c0,1.077-0.197,1.819-0.586,2.236
					c-0.239,0.251-0.535,0.433-0.888,0.546c-0.354,0.115-0.869,0.196-1.549,0.249c-0.58,0.047-1.308,0.07-2.194,0.07H43.366z
					 M44.977,55.117h5.398c0.918,0,1.545-0.019,1.869-0.05c0.328-0.033,0.578-0.101,0.751-0.201c0.363-0.205,0.544-0.652,0.544-1.33
					c0-0.656-0.129-1.081-0.378-1.281c-0.149-0.118-0.347-0.193-0.592-0.221c-0.242-0.03-0.974-0.055-2.194-0.081h-5.398V55.117z
					 M44.977,59.94h5.398c1.082,0,1.835-0.03,2.268-0.082c0.425-0.061,0.738-0.165,0.932-0.322c0.247-0.213,0.37-0.653,0.37-1.318
					c0-0.706-0.137-1.16-0.419-1.363c-0.185-0.145-0.41-0.231-0.664-0.261c-0.258-0.029-1.087-0.055-2.488-0.075h-5.398V59.94z"/>
				<path fill="#FF0000" d="M56.23,50.549h2.139l4.964,5.042l4.794-5.042h2.202l-6.187,6.39v4.403h-1.619v-4.403L56.23,50.549z"/>
			</g>
		</g>
		<g>
			<g>
				<path fill="#08184E" d="M62.489,7.387v26.907h-1.911c-0.818,0-1.407-0.162-1.767-0.486c-0.361-0.325-0.541-0.894-0.541-1.71
					V20.831c-0.289,0.34-0.674,0.584-1.154,0.729c-0.481,0.146-0.998,0.219-1.551,0.219h-7.935v12.516h-1.948
					c-0.818,0-1.401-0.162-1.75-0.487c-0.349-0.325-0.523-0.896-0.523-1.713V7.387h4.22v10.965h10.64V7.387H62.489z"/>
				<path fill="#08184E" d="M68.476,41.832V40.39c0-0.77,0.186-1.311,0.559-1.624c0.373-0.313,1.028-0.469,1.966-0.469h5.699
					c0.841,0,1.412-0.175,1.713-0.523c0.3-0.349,0.451-0.824,0.451-1.425v-2.344c-0.794,0.072-1.569,0.126-2.326,0.162
					c-0.758,0.036-1.629,0.078-2.615,0.126c-2.212,0.072-3.823-0.469-4.833-1.623c-1.01-1.154-1.515-2.765-1.515-4.833V14.457h4.184
					v13.345c0,1.034,0.156,1.81,0.469,2.326c0.312,0.518,0.913,0.764,1.803,0.74c0.914-0.021,1.755-0.059,2.525-0.112
					c0.769-0.053,1.538-0.112,2.308-0.176V14.457h4.184v21.929c0,0.77-0.121,1.484-0.361,2.146c-0.24,0.661-0.613,1.238-1.118,1.731
					c-0.505,0.493-1.16,0.877-1.966,1.154c-0.806,0.276-1.773,0.415-2.903,0.415H68.476z"/>
				<path fill="#08184E" d="M95.274,34.294c-1.275,0-2.375-0.121-3.3-0.361c-0.926-0.24-1.695-0.644-2.308-1.208
					c-0.613-0.565-1.064-1.304-1.353-2.218c-0.288-0.914-0.433-2.056-0.433-3.426V14.457h4.148v12.596
					c0,0.792,0.06,1.434,0.18,1.925c0.12,0.492,0.306,0.882,0.559,1.17c0.252,0.288,0.583,0.48,0.992,0.576
					c0.409,0.096,0.914,0.144,1.515,0.144h3.859V14.457h4.184v19.837H95.274z"/>
				<path fill="#08184E" d="M117.022,14.457c1.274,0,2.35,0.115,3.228,0.343c0.877,0.229,1.587,0.595,2.128,1.1
					s0.925,1.16,1.154,1.966c0.228,0.806,0.343,1.773,0.343,2.903v13.525h-1.912c-0.793,0-1.371-0.162-1.731-0.487
					c-0.361-0.325-0.541-0.907-0.541-1.75V20.769c0-1.154-0.193-1.935-0.577-2.344c-0.385-0.409-1.082-0.613-2.092-0.613h-4.509
					v16.483h-1.839c-0.842,0-1.443-0.162-1.803-0.487c-0.361-0.325-0.541-0.907-0.541-1.75V14.457H117.022z"/>
				<path fill="#08184E" d="M143.713,7.207v27.087h-7.719c-2.453,0-4.316-0.529-5.591-1.587c-1.275-1.058-1.911-2.681-1.911-4.869
					v-6.961c0-2.14,0.637-3.745,1.911-4.815c1.274-1.069,3.138-1.605,5.591-1.605h3.535v-7.25H143.713z M139.529,17.811h-3.571
					c-0.986,0-1.78,0.276-2.38,0.827c-0.601,0.552-0.902,1.415-0.902,2.59v6.259c0,1.151,0.3,2.002,0.902,2.553
					c0.601,0.552,1.407,0.828,2.417,0.828h3.535V17.811z"/>
				<path fill="#08184E" d="M163.622,34.294h-8.62c-2.068,0-3.697-0.451-4.887-1.353s-1.785-2.254-1.785-4.058v-2.2
					c0-2.068,0.595-3.558,1.785-4.472c1.19-0.914,2.819-1.347,4.887-1.299c0.889,0.024,1.665,0.054,2.326,0.09
					c0.661,0.036,1.364,0.103,2.11,0.198v-1.19c0-0.673-0.193-1.208-0.577-1.605c-0.385-0.397-0.998-0.595-1.84-0.595h-4.689
					c-0.553,0-1.004-0.048-1.353-0.145c-0.349-0.096-0.613-0.234-0.793-0.415c-0.18-0.18-0.301-0.384-0.361-0.613
					c-0.06-0.228-0.09-0.487-0.09-0.775v-1.407h7.286c2.308,0,3.986,0.475,5.031,1.425c1.046,0.95,1.569,2.326,1.569,4.13V34.294z
					 M155.038,24.447c-0.866,0-1.503,0.18-1.912,0.539c-0.409,0.358-0.613,0.968-0.613,1.829v1.901c0,0.431,0.078,0.79,0.235,1.076
					c0.156,0.287,0.361,0.508,0.613,0.664c0.252,0.155,0.529,0.263,0.83,0.323c0.3,0.06,0.583,0.09,0.848,0.09h4.4V24.7
					c-0.842-0.096-1.629-0.162-2.362-0.198C156.342,24.465,155.663,24.447,155.038,24.447z"/>
				<path fill="#08184E" d="M168.563,6.882h4.328v4.833h-1.587c-0.746,0-1.389-0.21-1.93-0.631c-0.541-0.42-0.812-1.028-0.812-1.822
					V6.882z M172.819,14.457v19.837h-1.875c-0.842,0-1.437-0.162-1.785-0.487c-0.349-0.325-0.523-0.907-0.523-1.75V14.457H172.819z"
					/>
				<path fill="#08184E" d="M206.145,32.216c0,0.559-0.168,1.044-0.505,1.458c-0.337,0.412-1.07,0.619-2.2,0.619h-7.394
					c-1.082,0-2.074-0.168-2.976-0.505c-0.902-0.337-1.683-0.812-2.344-1.425c-0.662-0.613-1.178-1.358-1.551-2.236
					c-0.373-0.877-0.559-1.845-0.559-2.903V14.349c0-2.164,0.721-3.865,2.164-5.104c1.443-1.238,3.474-1.857,6.095-1.857h8.909
					v1.299c0,0.288-0.031,0.565-0.09,0.829c-0.06,0.265-0.187,0.493-0.379,0.686c-0.193,0.193-0.463,0.343-0.812,0.451
					c-0.349,0.108-0.812,0.163-1.388,0.163h-6.132c-2.765,0-4.148,1.332-4.148,3.996v12.133c0,0.504,0.072,0.996,0.216,1.476
					s0.354,0.9,0.631,1.26c0.276,0.36,0.625,0.648,1.046,0.864c0.42,0.216,0.907,0.324,1.461,0.324h9.955V32.216z"/>
				<path fill="#08184E" d="M219.744,33.212l-0.252-2.2h-0.108c-0.974,1.371-2.85,2.597-5.339,2.597
					c-3.535,0-5.339-2.489-5.339-5.014c0-4.22,3.751-6.529,10.497-6.493v-0.361c0-1.443-0.397-4.04-3.968-4.04
					c-1.623,0-3.319,0.505-4.545,1.298l-0.721-2.092c1.443-0.938,3.535-1.551,5.735-1.551c5.339,0,6.637,3.643,6.637,7.142v6.529
					c0,1.515,0.072,2.994,0.289,4.184H219.744z M217.002,8.214l3.102,5.158h-2.417l-1.84-3.391h-0.072l-1.84,3.391h-2.309
					l3.03-5.158H217.002z M219.275,24.302c-3.463-0.072-7.395,0.541-7.395,3.932c0,2.056,1.371,3.03,2.994,3.03
					c2.272,0,3.715-1.443,4.22-2.922c0.108-0.325,0.18-0.686,0.18-1.01V24.302z M220.14,5.256l2.309,4.761h-1.84l-3.355-4.761
					H220.14z"/>
				<path fill="#08184E" d="M234.566,34.294c-1.275,0-2.375-0.121-3.3-0.361c-0.926-0.24-1.695-0.644-2.308-1.208
					c-0.613-0.565-1.064-1.304-1.353-2.218c-0.288-0.914-0.433-2.056-0.433-3.426V14.457h4.148v12.596
					c0,0.792,0.06,1.434,0.18,1.925c0.12,0.492,0.306,0.882,0.559,1.17c0.252,0.288,0.583,0.48,0.992,0.576
					c0.409,0.096,0.914,0.144,1.515,0.144h3.859V14.457h4.184v19.837H234.566z"/>
				<path fill="#08184E" d="M268.541,7.387c1.539,0,2.879,0.199,4.021,0.595c1.142,0.397,2.092,0.944,2.85,1.641
					c0.757,0.698,1.316,1.521,1.677,2.471c0.361,0.95,0.541,1.978,0.541,3.084v11.397c0,1.106-0.18,2.134-0.541,3.084
					c-0.361,0.95-0.92,1.768-1.677,2.453c-0.757,0.686-1.708,1.22-2.85,1.605c-1.142,0.384-2.482,0.577-4.021,0.577h-9.955V7.387
					H268.541z M262.77,10.814v20.054h5.771c1.515,0,2.711-0.384,3.589-1.152c0.877-0.769,1.316-1.825,1.316-3.168V15.17
					c0-1.439-0.439-2.526-1.316-3.258c-0.878-0.732-2.074-1.098-3.589-1.098H262.77z"/>
				<path fill="#08184E" d="M282.499,6.882h4.328v4.833h-1.587c-0.746,0-1.389-0.21-1.93-0.631c-0.541-0.42-0.812-1.028-0.812-1.822
					V6.882z M286.755,14.457v19.837h-1.875c-0.842,0-1.438-0.162-1.786-0.487c-0.349-0.325-0.523-0.907-0.523-1.75V14.457H286.755z"
					/>
				<path fill="#08184E" d="M293.933,25.06c0.072,4.292,2.813,6.06,5.988,6.06c2.272,0,3.643-0.396,4.833-0.902l0.541,2.273
					c-1.118,0.505-3.03,1.082-5.808,1.082c-5.375,0-8.585-3.535-8.585-8.802s3.103-9.415,8.188-9.415
					c5.699,0,7.214,5.014,7.214,8.224c0,0.649-0.072,1.154-0.108,1.479H293.933z M303.24,22.787c0.036-2.02-0.83-5.158-4.401-5.158
					c-3.21,0-4.617,2.958-4.87,5.158H303.24z M300.065,9.116l3.283,4.257h-2.489l-1.912-2.633h-0.072l-1.948,2.633h-2.417
					l3.246-4.257H300.065z M294.583,8.683c-0.036-2.056,0.901-3.427,2.453-3.427c0.793,0,1.407,0.361,2.236,0.793
					c0.577,0.325,1.083,0.577,1.515,0.577c0.577,0,0.902-0.289,1.01-1.443h1.66c0.072,2.236-0.758,3.463-2.453,3.463
					c-0.757,0-1.443-0.361-2.164-0.757c-0.722-0.397-1.154-0.613-1.587-0.613c-0.577,0-0.866,0.577-0.938,1.407H294.583z"/>
				<path fill="#08184E" d="M318.819,14.457c1.274,0,2.35,0.115,3.228,0.343c0.877,0.229,1.587,0.595,2.128,1.1
					s0.925,1.16,1.154,1.966c0.228,0.806,0.342,1.773,0.342,2.903v13.525h-1.912c-0.793,0-1.371-0.162-1.731-0.487
					c-0.361-0.325-0.541-0.907-0.541-1.75V20.769c0-1.154-0.193-1.935-0.577-2.344c-0.385-0.409-1.082-0.613-2.092-0.613h-4.509
					v16.483h-1.839c-0.842,0-1.443-0.162-1.803-0.487c-0.361-0.325-0.541-0.907-0.541-1.75V14.457H318.819z"/>
			</g>
		</g>
	</g>
</g>
<g>
	<g>
		<g>
			<g>
				<g id="XMLID_1_">
					<path id="XMLID_2_" fill="#FFFFFF" d="M187.999,132.66c-0.66-0.666-1.527-0.997-2.596-0.997h-9.593l-0.004,10.784h3.003
						l0.006-8.385h6.129c0.346,0,0.822,0.112,1.037,0.332c0.211,0.213,0.316,0.564,0.32,0.883c0,0.308-0.109,0.619-0.33,0.839
						c-0.229,0.233-0.716,0.341-1.054,0.341h-5.813l5.998,5.989h3.896l-4.323-3.967h0.75c1.051,0,1.908-0.341,2.57-1.016
						c0.67-0.693,1.002-1.492,1.002-2.416C188.998,134.128,188.666,133.334,187.999,132.66z"/>
				</g>
				<path fill="#FFFFFF" d="M97.819,140.057c-0.508,0-0.93-0.141-1.276-0.442c-0.329-0.283-0.499-0.669-0.495-1.148l-0.004-2.78
					c0.02-0.5,0.193-0.891,0.506-1.181c0.331-0.3,0.757-0.447,1.281-0.447h7.206v-2.387h-8.007c-1.211,0-2.178,0.358-2.904,1.065
					c-0.717,0.707-1.077,1.547-1.083,2.521v3.603c-0.004,0.952,0.348,1.781,1.06,2.507c0.733,0.725,1.695,1.081,2.883,1.081h8.051
					v-2.391H97.819z"/>
				<polygon fill="#FFFFFF" points="91.845,131.664 78.649,131.664 78.649,134.058 83.747,134.058 83.747,142.457 86.744,142.457 
					86.744,134.058 91.845,134.058 				"/>
				<polygon fill="#FFFFFF" points="157.813,131.664 144.618,131.664 144.618,134.058 149.716,134.058 149.716,142.457 
					152.713,142.457 152.713,134.058 157.813,134.058 				"/>
				<polygon fill="#FFFFFF" points="124.229,131.671 123.63,131.671 118.831,139.458 114.033,131.671 113.435,131.671 
					110.434,131.671 110.434,142.457 110.692,142.457 112.268,142.457 113.435,142.457 113.435,136.463 113.435,136.458 
					117.332,142.447 118.831,142.447 120.331,142.447 124.229,136.458 124.229,136.463 124.229,142.457 125.397,142.457 
					126.974,142.457 127.228,142.457 127.228,131.671 				"/>
				<path fill="#FFFFFF" d="M172.328,132.736c-0.728-0.707-1.698-1.065-2.908-1.065h-1.635h-3.154h-1.634
					c-1.214,0-2.177,0.358-2.906,1.065c-0.717,0.707-1.075,1.547-1.079,2.521v3.603c-0.004,0.952,0.347,1.781,1.061,2.507
					c0.73,0.725,1.691,1.081,2.882,1.081h1.677h3.154h1.676c1.192,0,2.154-0.356,2.882-1.081c0.721-0.727,1.063-1.556,1.061-2.507
					v-3.603C173.404,134.283,173.041,133.442,172.328,132.736z M170.405,138.467c0,0.479-0.165,0.865-0.498,1.148
					c-0.344,0.301-0.771,0.442-1.276,0.442h-0.846h-3.154h-0.845c-0.507,0-0.93-0.141-1.276-0.442
					c-0.33-0.283-0.495-0.669-0.493-1.148l-0.006-2.78c0.021-0.5,0.196-0.891,0.507-1.181c0.33-0.3,0.757-0.447,1.282-0.447h0.831
					h3.154h0.833c0.526,0,0.952,0.147,1.283,0.447c0.314,0.291,0.485,0.682,0.507,1.181L170.405,138.467z"/>
				<path fill="#FFFFFF" d="M142.34,132.736c-0.727-0.707-1.693-1.065-2.903-1.065h-1.634h-3.156h-1.63
					c-1.216,0-2.184,0.358-2.91,1.065c-0.714,0.707-1.075,1.547-1.081,2.521v3.603c-0.002,0.952,0.348,1.781,1.065,2.507
					c0.729,0.725,1.688,1.081,2.882,1.081h1.675h3.156h1.673c1.193,0,2.151-0.356,2.884-1.081c0.717-0.727,1.066-1.556,1.061-2.507
					v-3.603C143.419,134.283,143.056,133.442,142.34,132.736z M140.416,138.467c0,0.479-0.166,0.865-0.493,1.148
					c-0.348,0.301-0.771,0.442-1.278,0.442h-0.841h-3.156h-0.845c-0.507,0-0.93-0.141-1.276-0.442
					c-0.332-0.283-0.497-0.669-0.497-1.148l-0.002-2.78c0.02-0.5,0.191-0.891,0.507-1.181c0.331-0.3,0.757-0.447,1.279-0.447h0.835
					h3.156h0.829c0.527,0,0.95,0.147,1.284,0.447c0.314,0.291,0.485,0.682,0.507,1.181L140.416,138.467z"/>
			</g>
			<g>
				<path fill="#FFFFFF" d="M43.366,142.457v-10.793h7.009c1.264,0.021,2.057,0.045,2.375,0.068c1.034,0.09,1.741,0.5,2.133,1.234
					c0.197,0.368,0.298,0.869,0.298,1.503c0,0.697-0.096,1.22-0.29,1.573c-0.201,0.354-0.465,0.592-0.797,0.71
					c0.459,0.077,0.822,0.32,1.095,0.725c0.27,0.406,0.402,1.031,0.402,1.878c0,1.078-0.197,1.82-0.586,2.236
					c-0.239,0.251-0.535,0.433-0.888,0.547c-0.354,0.114-0.869,0.196-1.549,0.249c-0.58,0.047-1.308,0.07-2.194,0.07H43.366z
					 M44.977,136.23h5.398c0.918,0,1.545-0.019,1.869-0.05c0.328-0.033,0.578-0.101,0.751-0.201c0.363-0.205,0.544-0.651,0.544-1.33
					c0-0.656-0.129-1.081-0.378-1.281c-0.149-0.118-0.347-0.193-0.592-0.22c-0.242-0.03-0.974-0.055-2.194-0.081h-5.398V136.23z
					 M44.977,141.054h5.398c1.082,0,1.835-0.03,2.268-0.082c0.425-0.061,0.738-0.166,0.932-0.323c0.247-0.213,0.37-0.653,0.37-1.318
					c0-0.706-0.137-1.16-0.419-1.363c-0.185-0.145-0.41-0.231-0.664-0.261c-0.258-0.029-1.087-0.055-2.488-0.075h-5.398V141.054z"/>
				<path fill="#FFFFFF" d="M56.23,131.664h2.139l4.964,5.041l4.794-5.041h2.202l-6.187,6.39v4.403h-1.619v-4.403L56.23,131.664z"/>
			</g>
		</g>
		<g>
			<g>
				<path fill="#FFFFFF" d="M62.489,88.501v26.907h-1.911c-0.818,0-1.407-0.162-1.767-0.486c-0.361-0.325-0.541-0.894-0.541-1.71
					v-11.268c-0.289,0.34-0.674,0.584-1.154,0.729c-0.481,0.146-0.998,0.219-1.551,0.219h-7.935v12.516h-1.948
					c-0.818,0-1.401-0.162-1.75-0.487c-0.349-0.325-0.523-0.896-0.523-1.713V88.501h4.22v10.965h10.64V88.501H62.489z"/>
				<path fill="#FFFFFF" d="M68.476,122.946v-1.442c0-0.77,0.186-1.311,0.559-1.624c0.373-0.313,1.028-0.469,1.966-0.469h5.699
					c0.841,0,1.412-0.175,1.713-0.523c0.3-0.349,0.451-0.824,0.451-1.425v-2.344c-0.794,0.072-1.569,0.126-2.326,0.162
					c-0.758,0.036-1.629,0.078-2.615,0.126c-2.212,0.072-3.823-0.469-4.833-1.623c-1.01-1.154-1.515-2.765-1.515-4.833V95.57h4.184
					v13.345c0,1.034,0.156,1.81,0.469,2.326c0.312,0.518,0.913,0.764,1.803,0.74c0.914-0.021,1.755-0.059,2.525-0.112
					c0.769-0.053,1.538-0.112,2.308-0.176V95.57h4.184V117.5c0,0.77-0.121,1.484-0.361,2.146c-0.24,0.661-0.613,1.238-1.118,1.731
					c-0.505,0.493-1.16,0.877-1.966,1.154c-0.806,0.276-1.773,0.415-2.903,0.415H68.476z"/>
				<path fill="#FFFFFF" d="M95.274,115.408c-1.275,0-2.375-0.121-3.3-0.361c-0.926-0.24-1.695-0.644-2.308-1.208
					c-0.613-0.565-1.064-1.304-1.353-2.218c-0.288-0.914-0.433-2.056-0.433-3.426V95.57h4.148v12.596c0,0.792,0.06,1.434,0.18,1.925
					c0.12,0.492,0.306,0.882,0.559,1.17c0.252,0.288,0.583,0.48,0.992,0.576c0.409,0.096,0.914,0.144,1.515,0.144h3.859V95.57h4.184
					v19.837H95.274z"/>
				<path fill="#FFFFFF" d="M117.022,95.57c1.274,0,2.35,0.115,3.228,0.343c0.877,0.229,1.587,0.595,2.128,1.1
					s0.925,1.16,1.154,1.966c0.228,0.806,0.343,1.773,0.343,2.903v13.525h-1.912c-0.793,0-1.371-0.162-1.731-0.487
					c-0.361-0.325-0.541-0.907-0.541-1.75v-11.289c0-1.154-0.193-1.935-0.577-2.344c-0.385-0.409-1.082-0.613-2.092-0.613h-4.509
					v16.483h-1.839c-0.842,0-1.443-0.162-1.803-0.487c-0.361-0.325-0.541-0.907-0.541-1.75V95.57H117.022z"/>
				<path fill="#FFFFFF" d="M143.713,88.321v27.087h-7.719c-2.453,0-4.316-0.529-5.591-1.587c-1.275-1.058-1.911-2.681-1.911-4.869
					v-6.961c0-2.14,0.637-3.745,1.911-4.815c1.274-1.069,3.138-1.605,5.591-1.605h3.535v-7.25H143.713z M139.529,98.925h-3.571
					c-0.986,0-1.78,0.276-2.38,0.827c-0.601,0.552-0.902,1.415-0.902,2.59v6.259c0,1.151,0.3,2.002,0.902,2.553
					c0.601,0.552,1.407,0.828,2.417,0.828h3.535V98.925z"/>
				<path fill="#FFFFFF" d="M163.622,115.408h-8.62c-2.068,0-3.697-0.451-4.887-1.353s-1.785-2.254-1.785-4.058v-2.2
					c0-2.068,0.595-3.558,1.785-4.472c1.19-0.914,2.819-1.347,4.887-1.299c0.889,0.024,1.665,0.054,2.326,0.09
					c0.661,0.036,1.364,0.103,2.11,0.198v-1.19c0-0.673-0.193-1.208-0.577-1.605c-0.385-0.397-0.998-0.595-1.84-0.595h-4.689
					c-0.553,0-1.004-0.048-1.353-0.145c-0.349-0.096-0.613-0.234-0.793-0.415c-0.18-0.18-0.301-0.384-0.361-0.613
					c-0.06-0.228-0.09-0.487-0.09-0.775V95.57h7.286c2.308,0,3.986,0.475,5.031,1.425c1.046,0.95,1.569,2.326,1.569,4.13V115.408z
					 M155.038,105.561c-0.866,0-1.503,0.18-1.912,0.539c-0.409,0.358-0.613,0.968-0.613,1.829v1.901c0,0.431,0.078,0.79,0.235,1.076
					c0.156,0.287,0.361,0.508,0.613,0.664c0.252,0.155,0.529,0.263,0.83,0.323c0.3,0.06,0.583,0.09,0.848,0.09h4.4v-6.168
					c-0.842-0.096-1.629-0.162-2.362-0.198C156.342,105.579,155.663,105.561,155.038,105.561z"/>
				<path fill="#FFFFFF" d="M168.563,87.996h4.328v4.833h-1.587c-0.746,0-1.389-0.21-1.93-0.631
					c-0.541-0.42-0.812-1.028-0.812-1.822V87.996z M172.819,95.57v19.837h-1.875c-0.842,0-1.437-0.162-1.785-0.487
					c-0.349-0.325-0.523-0.907-0.523-1.75V95.57H172.819z"/>
				<path fill="#FFFFFF" d="M195.217,91.928h-8.151v-3.427h20.559v1.263c0,0.77-0.144,1.323-0.433,1.659
					c-0.289,0.337-0.938,0.505-1.948,0.505h-5.807v23.48h-1.948c-0.793,0-1.371-0.162-1.731-0.487s-0.541-0.896-0.541-1.713V91.928z
					"/>
				<path fill="#FFFFFF" d="M225.261,111.981v1.458c0,0.292-0.024,0.559-0.072,0.802c-0.048,0.243-0.162,0.45-0.343,0.62
					c-0.18,0.17-0.439,0.304-0.775,0.401c-0.337,0.097-0.794,0.146-1.371,0.146h-5.519c-2.14,0-3.847-0.577-5.122-1.731
					c-1.275-1.154-1.912-2.729-1.912-4.725v-6.708c0-1.274,0.21-2.368,0.631-3.282c0.42-0.914,0.986-1.659,1.695-2.236
					c0.709-0.577,1.539-0.998,2.489-1.262c0.949-0.265,1.953-0.397,3.012-0.397c1.154,0,2.218,0.145,3.192,0.435
					s1.815,0.706,2.525,1.248c0.709,0.543,1.262,1.224,1.659,2.044c0.397,0.82,0.595,1.749,0.595,2.785v2.605
					c0,0.869-0.252,1.592-0.758,2.171c-0.505,0.579-1.298,0.868-2.38,0.868h-8.476v1.741c0,0.972,0.282,1.718,0.848,2.239
					c0.565,0.521,1.232,0.782,2.002,0.782H225.261z M215.919,93.37h-4.076l4.436-5.193h3.751l4.328,5.193h-4.112l-2.092-2.885
					L215.919,93.37z M214.332,103.794h6.853c0.168,0,0.312-0.065,0.433-0.197c0.12-0.131,0.18-0.304,0.18-0.52v-1.505
					c0-0.931-0.324-1.678-0.974-2.239c-0.649-0.562-1.6-0.842-2.849-0.842c-1.106,0-1.99,0.281-2.651,0.842
					c-0.662,0.561-0.992,1.308-0.992,2.239V103.794z"/>
				<path fill="#FFFFFF" d="M239.183,95.57c1.274,0,2.35,0.115,3.228,0.343c0.877,0.229,1.587,0.595,2.128,1.1
					s0.925,1.16,1.154,1.966c0.228,0.806,0.343,1.773,0.343,2.903v13.525h-1.912c-0.793,0-1.371-0.162-1.731-0.487
					c-0.361-0.325-0.541-0.907-0.541-1.75v-11.289c0-1.154-0.193-1.935-0.577-2.344c-0.385-0.409-1.082-0.613-2.092-0.613h-4.509
					v16.483h-1.839c-0.842,0-1.443-0.162-1.803-0.487c-0.361-0.325-0.541-0.907-0.541-1.75V95.57H239.183z"/>
				<path fill="#FFFFFF" d="M260.499,100.187h3.39V88.501h10.315c1.491,0,2.783,0.187,3.877,0.559
					c1.094,0.373,2.002,0.896,2.723,1.569c0.721,0.674,1.256,1.461,1.605,2.363c0.348,0.901,0.523,1.882,0.523,2.939v12.119
					c0,1.059-0.175,2.038-0.523,2.939c-0.349,0.902-0.884,1.677-1.605,2.327c-0.721,0.649-1.629,1.16-2.723,1.533
					c-1.094,0.373-2.387,0.559-3.877,0.559h-10.315v-11.794h-3.39V100.187z M268.073,91.928v8.259h5.915v1.334
					c0,0.289-0.03,0.559-0.09,0.812s-0.18,0.475-0.36,0.667c-0.181,0.193-0.445,0.343-0.794,0.451
					c-0.349,0.108-0.812,0.163-1.388,0.163h-3.282v8.368h6.131c1.418,0,2.53-0.354,3.336-1.062c0.805-0.708,1.208-1.674,1.208-2.898
					V95.924c0-1.32-0.403-2.316-1.208-2.988c-0.806-0.671-1.918-1.008-3.336-1.008H268.073z"/>
				<path fill="#FFFFFF" d="M289.533,117.572V89.403h25.248v28.169H289.533z M291.3,115.84h21.713V91.206H291.3V115.84z"/>
				<path fill="#FFFFFF" d="M321.344,87.996h4.328v4.833h-1.587c-0.746,0-1.389-0.21-1.93-0.631
					c-0.541-0.42-0.812-1.028-0.812-1.822V87.996z M325.601,95.57v19.837h-1.875c-0.842,0-1.438-0.162-1.786-0.487
					c-0.349-0.325-0.523-0.907-0.523-1.75V95.57H325.601z"/>
				<path fill="#FFFFFF" d="M346.087,111.981h12.227v1.313c0,0.753-0.156,1.294-0.469,1.622c-0.313,0.328-0.89,0.492-1.731,0.492
					h-14.247V88.501h4.22V111.981z"/>
				<path fill="#FFFFFF" d="M362.172,122.946v-1.442c0-0.77,0.186-1.311,0.559-1.624c0.373-0.313,1.028-0.469,1.966-0.469h5.699
					c0.841,0,1.412-0.175,1.713-0.523c0.301-0.349,0.451-0.824,0.451-1.425v-2.344c-0.793,0.072-1.569,0.126-2.327,0.162
					c-0.757,0.036-1.629,0.078-2.615,0.126c-2.212,0.072-3.823-0.469-4.833-1.623s-1.515-2.765-1.515-4.833V95.57h4.184v13.345
					c0,1.034,0.156,1.81,0.469,2.326c0.313,0.518,0.914,0.764,1.804,0.74c0.914-0.024,1.755-0.066,2.524-0.126
					c0.77-0.06,1.539-0.126,2.309-0.198V95.57h4.184V117.5c0,0.77-0.121,1.484-0.36,2.146c-0.241,0.661-0.613,1.238-1.118,1.731
					c-0.505,0.493-1.161,0.877-1.966,1.154c-0.806,0.276-1.773,0.415-2.903,0.415H362.172z M372.416,87.996l-3.282,4.148
					c-0.337,0.409-0.673,0.698-1.01,0.866c-0.337,0.168-0.818,0.252-1.442,0.252h-1.768l3.102-5.266H372.416z"/>
			</g>
		</g>
	</g>
</g>
<g>
</g>
<g>
</g>
<g>
</g>
<g>
</g>
<g>
</g>
<g>
</g>
</svg>
