<?xml version="1.0" encoding="utf-8"?>
<!-- Generator: Adobe Illustrator 22.1.0, SVG Export Plug-In . SVG Version: 6.00 Build 0)  -->
<svg version="1.1" id="Layer_1" xmlns="http://www.w3.org/2000/svg" xmlns:xlink="http://www.w3.org/1999/xlink" x="0px" y="0px"
	 viewBox="0 0 165.9 22.8" style="enable-background:new 0 0 165.9 22.8;" xml:space="preserve">
<style type="text/css">
	.st0{fill:#003469;}
</style>
<g>
	<polygon class="st0" points="63.7,3.2 63.7,9.5 56.6,9.5 56.6,3.2 52.7,3.2 52.7,19.6 56.6,19.6 56.6,13 63.7,13 63.7,19.6 
		67.6,19.6 67.6,3.2 67.4,3.2 	"/>
	<polygon class="st0" points="81.9,3.2 77.8,9.7 73.7,3.2 69.1,3.2 75.9,13.9 75.9,19.6 79.8,19.6 79.8,13.9 86.5,3.2 86.2,3.2 	"/>
	<path class="st0" d="M99,3.2v12c0,0.5-0.3,0.8-0.8,0.8H92V3.2h-3.9v16.4h11.5c1,0,1.8-0.3,2.5-0.9c0.6-0.6,0.9-1.4,0.9-2.4v-13
		h-0.2H99z"/>
	<path class="st0" d="M118.1,3.2h-11.5v16.4h3.9V6.8h6.3c0.5,0,0.8,0.4,0.8,0.8v12h3.9v-13c0-1-0.3-1.8-0.9-2.4
		C119.9,3.5,119.1,3.2,118.1,3.2"/>
	<path class="st0" d="M136.6,3.2H125v16.4h11.5c1,0,1.8-0.3,2.4-0.9c0.6-0.6,0.9-1.4,0.9-2.4V6.6c0-1-0.3-1.8-0.9-2.5
		C138.4,3.5,137.6,3.2,136.6,3.2 M136,7.6v7.6c0,0.4-0.3,0.8-0.8,0.8h-6.2V6.8h6.2C135.7,6.8,136,7.1,136,7.6"/>
	<path class="st0" d="M146.7,3.2c-1,0-1.8,0.3-2.4,0.9c-0.6,0.6-0.9,1.4-0.9,2.4v13h3.9v-5.1h7.1v5.1h3.9V3.2H146.7z M154.3,6.8V11
		h-7.1V7.6c0-0.4,0.3-0.8,0.8-0.8H154.3z"/>
	<rect x="162" y="3.2" class="st0" width="3.9" height="16.4"/>
	<path class="st0" d="M22.3,22.8c12.3,0,22.3-5.1,22.3-11.4C44.6,5.1,34.6,0,22.3,0C10,0,0,5.1,0,11.4C0,17.7,10,22.8,22.3,22.8
		 M26.5,17.2c-0.4,0.9-1,2.7-2.5,3.4c-0.4,0.2-1,0.3-1.5,0.3c-0.1,0-0.2,0-0.2,0c-4.1,0-7.9-0.6-11.1-1.5c0,0-0.1,0-0.1,0
		c-0.3-0.1-0.4-0.2-0.4-0.4c0-0.1,0.1-0.3,0.2-0.4c0,0,0.1-0.1,0.2-0.2c0.7-0.6,3-2.2,7.2-3.8c1.5-0.6,3.3-1.3,5.2-1.7
		C24.5,12.7,28.7,12.1,26.5,17.2 M37.7,5.7c0.1-0.1,0.2-0.3,0.4-0.3c0.1,0,0.2,0,0.5,0.2c2.6,1.6,4.2,3.6,4.2,5.8
		c0,3.9-5.1,7.3-12.3,8.8c-0.5,0.1-0.8,0.1-0.9,0c-0.1-0.1-0.1-0.2,0-0.4c0-0.1,0.1-0.2,0.2-0.3c3.9-4.6,6.9-11.5,7.8-13.5
		C37.6,5.9,37.7,5.8,37.7,5.7 M18.2,5.6c0.4-0.9,1-2.7,2.5-3.4c0.4-0.2,1-0.3,1.5-0.3c0.1,0,0.2,0,0.2,0c4.1,0,7.9,0.6,11.1,1.5
		c0,0,0.1,0,0.1,0c0.3,0.1,0.4,0.2,0.4,0.4c0,0.1-0.1,0.3-0.2,0.4c0,0-0.1,0.1-0.2,0.2c-0.7,0.6-3,2.2-7.2,3.8
		c-1.5,0.6-3.3,1.3-5.2,1.7C20.1,10.1,15.9,10.7,18.2,5.6 M14.1,2.6c0.5-0.1,0.8-0.1,0.9,0c0.1,0.1,0.1,0.2,0,0.4
		c-0.1,0.1-0.1,0.2-0.2,0.3C10.9,7.9,7.9,14.8,7,16.7c-0.1,0.1-0.1,0.3-0.2,0.4c-0.1,0.1-0.2,0.3-0.4,0.3c-0.1,0-0.2,0-0.5-0.2
		c-2.6-1.6-4.2-3.6-4.2-5.8C1.8,7.5,6.9,4.1,14.1,2.6"/>
</g>
</svg>
